PathFileType	4	(X/Y/Z)	Walk5.trc
DataRate	CameraRate	NumFrames	NumMarkers	Units	OrigDataRate	OrigDataStartFrame	OrigNumFrames
200.000000	200.000000	9	59	mm	200.000000	286	531
Frame#	Times		RFHD		CLAV		RASI		RACR1		RUA1		RFA1		LUA1		LFA1		LWRR		LWRU		RTH1		LTH2		LCAR		LACR1		LFHD		RBack		RCAR		LTH4		LTH3		T10		LLFC		C7		RWRR		LASI		RWRU		RElbow		LTB2		LToe		LBHD		RBHD		LTH1		STRN		RTB1		LTB4		RTH4		RPSI		RTH2		RMT1		LMMAL		LTB1		LMT1		LCAL		LElbow		LTB3		LMT5		RTB2		RElbowM		RTH3		RLFC		LElbowM		RTB4		LLMAL		LPSI		RTB3		RCAL		RToe		RMMAL		RLMAL		RMT5
			X1	Y1	Z1	X2	Y2	Z2	X3	Y3	Z3	X4	Y4	Z4	X5	Y5	Z5	X6	Y6	Z6	X7	Y7	Z7	X8	Y8	Z8	X9	Y9	Z9	X10	Y10	Z10	X11	Y11	Z11	X12	Y12	Z12	X13	Y13	Z13	X14	Y14	Z14	X15	Y15	Z15	X16	Y16	Z16	X17	Y17	Z17	X18	Y18	Z18	X19	Y19	Z19	X20	Y20	Z20	X21	Y21	Z21	X22	Y22	Z22	X23	Y23	Z23	X24	Y24	Z24	X25	Y25	Z25	X26	Y26	Z26	X27	Y27	Z27	X28	Y28	Z28	X29	Y29	Z29	X30	Y30	Z30	X31	Y31	Z31	X32	Y32	Z32	X33	Y33	Z33	X34	Y34	Z34	X35	Y35	Z35	X36	Y36	Z36	X37	Y37	Z37	X38	Y38	Z38	X39	Y39	Z39	X40	Y40	Z40	X41	Y41	Z41	X42	Y42	Z42	X43	Y43	Z43	X44	Y44	Z44	X45	Y45	Z45	X46	Y46	Z46	X47	Y47	Z47	X48	Y48	Z48	X49	Y49	Z49	X50	Y50	Z50	X51	Y51	Z51	X52	Y52	Z52	X53	Y53	Z53	X54	Y54	Z54	X55	Y55	Z55	X56	Y56	Z56	X57	Y57	Z57	X58	Y58	Z58	X59	Y59	Z59

286	1.43	-481.86	1404.9	13.825	-492.39	1161.7	-39.676	-502.74	801.29	128.55	-558.77	1192.9	142.1	-529.7	1055.8	225.87	-415.75	839.83	261.62	-570.37	1018.6	-296.09	-567.68	815.86	-358.23	-528.85	709.18	-362.34	-589.67	704.19	-380.46	-599.67	616	171.1	-480.35	573.13	-200.25	-554.77	663.61	-406.86	-575.6	1183.7	-226.63	-471.68	1413	-82.091	-678.45	1125	84.258	-337.75	706.41	269.81	-526.59	548.76	-228.96	-503.98	468.94	-198.92	-720.4	1045.2	-22.934	-454.76	393.56	-160.44	-635.42	1246.4	-38.431	-361.8	763	221.73	-515.92	794.86	-193.27	-402.71	734.47	273.33	-510.49	931.98	265.97	-395.89	225.54	-151.05	-197.02	105.62	-97.045	-594.51	1329.2	-111.2	-607.76	1326.8	21.076	-551.21	628.9	-249.85	-441.85	1054.6	-30.58	-685.25	265.56	37.266	-374.14	232.57	-93.43	-625.48	538.23	148.51	-763.22	828.94	17.675	-569.98	526.54	128.1	-735.46	24.635	-31.241	-346.94	88.743	-48.024	-397.73	317.23	-95.848	-237.38	89.834	-68.646	-395.53	35.068	-78.176	-613.48	905.59	-310.68	-345.32	154.64	-92.559	-268.06	50.291	-142.23	-761.44	200.57	74.347	-561.6	885.57	203.5	-647.91	458.39	116.39	-697.23	379.48	93.232	-633.82	879.73	-242.67	-728.86	190.99	23.295	-364.66	65.124	-124.67	-767.53	820.65	-85.811	-766.96	116.19	9.4025	-897.2	63.628	-3.1162	-677.48	26.738	5.8621	-820.84	82.212	-40.767	-834.37	72.234	42.582	-761.08	15.904	61.566
287	1.435	-475.93	1404.3	13.431	-486.34	1161.1	-40.124	-496.96	801.25	129.2	-552.96	1192.1	141.58	-523.72	1055.2	225.43	-410.04	839.32	261.58	-564.27	1017.8	-296.6	-561.38	814.94	-358.59	-522.66	708.24	-362.78	-583.4	703.26	-380.76	-593.75	615.63	171.38	-473.6	572.87	-200.01	-548.56	662.69	-407.19	-569.39	1182.9	-227.22	-465.7	1412.4	-82.483	-672.59	1124.3	83.566	-331.97	706.04	270.08	-519.97	548.35	-228.44	-497.22	468.63	-198.23	-714.26	1044.5	-23.581	-448.39	392.99	-159.7	-629.41	1245.8	-39.083	-356.01	762.55	221.93	-509.39	793.92	-193.42	-397	733.98	273.4	-504.77	931.46	265.75	-390.96	224.26	-149.74	-193.19	101.08	-94.366	-588.51	1328.6	-111.68	-601.82	1326.1	20.591	-544.58	628.43	-249.45	-435.69	1054.1	-30.781	-681.59	265.11	37.855	-369.33	231.2	-92.05	-619.86	537.88	148.98	-757.08	828.51	17.124	-564.36	525.97	128.58	-735.41	24.758	-31.139	-343.9	87.098	-46.41	-392.13	316.03	-94.744	-234.29	86.26	-66.275	-393.04	34.706	-77.024	-607.16	904.68	-311.02	-341.24	153.08	-90.899	-265.16	47.421	-140.25	-758.65	201.17	74.918	-555.97	884.91	203.46	-642.53	458.07	116.94	-692.22	379.3	93.822	-627.34	878.9	-242.99	-726.25	191.19	23.835	-361.51	63.961	-123.16	-760.94	820.17	-86.163	-765.4	116.94	9.8911	-896.33	66.362	-2.565	-677.52	26.706	5.7082	-819.81	83.805	-40.244	-833.39	73.842	43.112	-760.97	15.931	61.582
288	1.44	-469.99	1403.7	13.036	-480.26	1160.5	-40.606	-491.15	801.27	129.79	-547.15	1191.4	141.04	-517.78	1054.6	224.95	-404.41	838.82	261.53	-558.16	1017	-297.12	-555.02	814.05	-358.93	-516.37	707.34	-363.17	-577.03	702.35	-381.02	-587.7	615.29	171.64	-466.75	572.7	-199.78	-542.24	661.8	-407.45	-563.14	1182.2	-227.84	-459.71	1411.9	-82.875	-666.71	1123.6	82.835	-326.34	705.64	270.38	-513.26	548.05	-227.92	-490.4	468.43	-197.55	-708.09	1043.8	-24.251	-441.97	392.53	-159	-623.39	1245.2	-39.769	-350.31	762.08	222.13	-502.84	793.09	-193.58	-391.42	733.48	273.46	-499.09	930.98	265.48	-386.14	223.04	-148.48	-189.64	96.224	-91.802	-582.49	1328.1	-112.16	-595.86	1325.5	20.1	-537.85	628.11	-249.05	-429.52	1053.6	-31.058	-677.72	264.63	38.508	-364.64	229.85	-90.71	-614.05	537.51	149.43	-750.89	828.07	16.618	-558.54	525.44	129.03	-735.35	24.893	-31.039	-341.11	85.439	-44.865	-386.58	314.87	-93.675	-231.48	82.438	-64.016	-390.89	34.477	-75.953	-600.8	903.82	-311.36	-337.34	151.51	-89.292	-262.67	44.475	-138.43	-755.69	201.81	75.526	-550.39	884.32	203.35	-636.91	457.72	117.53	-686.95	379.09	94.468	-620.83	878.14	-243.33	-723.46	191.41	24.421	-358.65	62.847	-121.73	-754.34	819.75	-86.472	-763.69	117.76	10.409	-895.29	69.307	-2.0086	-677.57	26.675	5.5362	-818.63	85.519	-39.697	-832.29	75.574	43.66	-760.85	15.986	61.585
289	1.445	-464.03	1403.3	12.639	-474.16	1160.1	-41.118	-485.3	801.35	130.33	-541.33	1190.8	140.46	-511.87	1054.1	224.44	-398.87	838.33	261.47	-552.04	1016.2	-297.67	-548.58	813.21	-359.25	-510	706.49	-363.48	-570.56	701.48	-381.23	-581.51	614.97	171.9	-459.83	572.64	-199.56	-535.81	660.94	-407.64	-556.87	1181.5	-228.5	-453.72	1411.5	-83.267	-660.84	1123.1	82.067	-320.85	705.22	270.7	-506.49	547.89	-227.41	-483.55	468.34	-196.88	-701.9	1043.3	-24.942	-435.51	392.19	-158.33	-617.33	1244.7	-40.489	-344.73	761.6	222.35	-496.25	792.36	-193.75	-385.98	732.98	273.53	-493.48	930.54	265.15	-381.4	221.9	-147.3	-186.32	91.132	-89.399	-576.46	1327.6	-112.65	-589.87	1325	19.604	-531.02	627.93	-248.65	-423.33	1053.2	-31.411	-673.62	264.13	39.228	-360.04	228.57	-89.438	-608.05	537.15	149.87	-744.64	827.62	16.167	-552.52	524.96	129.47	-735.26	25.043	-30.944	-338.51	83.817	-43.423	-381.07	313.79	-92.658	-228.89	78.448	-61.912	-389.02	34.398	-74.986	-594.4	903.02	-311.72	-333.6	149.98	-87.773	-260.53	41.523	-136.81	-752.53	202.5	76.169	-544.85	883.79	203.16	-631.03	457.34	118.14	-681.39	378.84	95.171	-614.3	877.46	-243.69	-720.46	191.66	25.052	-356	61.818	-120.42	-747.75	819.37	-86.733	-761.81	118.66	10.955	-894.05	72.482	-1.4587	-677.64	26.642	5.3487	-817.28	87.363	-39.13	-831.04	77.443	44.217	-760.72	16.08	61.572
290	1.45	-458.06	1402.9	12.238	-468.05	1159.7	-41.66	-479.41	801.48	130.79	-535.51	1190.2	139.87	-506.02	1053.7	223.9	-393.43	837.85	261.38	-545.89	1015.6	-298.24	-542.08	812.43	-359.55	-503.53	705.7	-363.73	-564.01	700.66	-381.39	-575.19	614.69	172.14	-452.85	572.67	-199.35	-529.27	660.12	-407.76	-550.57	1180.9	-229.2	-447.71	1411.2	-83.661	-654.96	1122.6	81.263	-315.52	704.79	271.05	-499.66	547.87	-226.92	-476.7	468.37	-196.26	-695.7	1042.8	-25.65	-429.01	391.99	-157.73	-611.25	1244.3	-41.241	-339.25	761.1	222.57	-489.64	791.75	-193.9	-380.69	732.49	273.58	-487.93	930.15	264.78	-376.7	220.87	-146.23	-183.21	85.905	-87.195	-570.4	1327.3	-113.15	-583.86	1324.6	19.102	-524.1	627.92	-248.26	-417.12	1052.9	-31.839	-669.26	263.63	40.018	-355.53	227.37	-88.26	-601.84	536.79	150.29	-738.35	827.18	15.783	-546.29	524.55	129.89	-735.15	25.211	-30.855	-336.06	82.27	-42.112	-375.6	312.8	-91.714	-226.47	74.369	-59.995	-387.37	34.473	-74.141	-587.95	902.28	-312.08	-329.99	148.53	-86.376	-258.67	38.627	-135.43	-749.15	203.24	76.844	-539.36	883.34	202.89	-624.88	456.95	118.79	-675.54	378.55	95.93	-607.74	876.86	-244.06	-717.25	191.94	25.73	-353.53	60.898	-119.24	-741.16	819.04	-86.947	-759.73	119.65	11.528	-892.59	75.901	-0.92756	-677.74	26.608	5.149	-815.72	89.343	-38.547	-829.64	79.462	44.777	-760.58	16.226	61.539
291	1.455	-452.08	1402.6	11.835	-461.91	1159.4	-42.226	-473.47	801.65	131.16	-529.68	1189.8	139.25	-500.21	1053.3	223.33	-388.09	837.4	261.28	-539.71	1015	-298.82	-535.5	811.7	-359.82	-496.98	704.97	-363.91	-557.37	699.89	-381.51	-568.73	614.44	172.37	-445.84	572.81	-199.13	-522.63	659.35	-407.81	-544.22	1180.4	-229.93	-441.7	1411	-84.057	-649.08	1122.2	80.428	-310.36	704.36	271.41	-492.8	548	-226.46	-469.87	468.53	-195.68	-689.48	1042.5	-26.372	-422.48	391.95	-157.19	-605.13	1244	-42.021	-333.9	760.6	222.8	-483	791.27	-194.03	-375.53	732.01	273.63	-482.44	929.83	264.36	-372.05	219.98	-145.29	-180.3	80.639	-85.219	-564.33	1327	-113.66	-577.83	1324.2	18.593	-517.1	628.07	-247.89	-410.9	1052.6	-32.341	-664.63	263.12	40.88	-351.1	226.27	-87.203	-595.43	536.45	150.71	-732.02	826.73	15.473	-539.85	524.21	130.29	-735.01	25.402	-30.776	-333.73	80.829	-40.953	-370.16	311.92	-90.864	-224.21	70.278	-58.293	-385.88	34.694	-73.427	-581.45	901.62	-312.45	-326.5	147.16	-85.132	-257.06	35.838	-134.3	-745.54	204.06	77.549	-533.92	882.97	202.54	-618.47	456.55	119.47	-669.37	378.24	96.745	-601.15	876.36	-244.43	-713.78	192.27	26.456	-351.18	60.094	-118.22	-734.57	818.77	-87.112	-757.44	120.73	12.129	-890.86	79.583	-0.42814	-677.87	26.569	4.9409	-813.92	91.466	-37.953	-828.05	81.641	45.33	-760.42	16.436	61.482
292	1.46	-446.08	1402.5	11.429	-455.75	1159.2	-42.814	-467.49	801.87	131.43	-523.86	1189.4	138.61	-494.47	1053	222.74	-382.85	836.98	261.16	-533.5	1014.5	-299.41	-528.85	811.04	-360.07	-490.33	704.32	-364.01	-550.64	699.18	-381.57	-562.14	614.24	172.59	-438.82	573.08	-198.89	-515.88	658.64	-407.78	-537.84	1180	-230.69	-435.68	1410.9	-84.455	-643.2	1122	79.566	-305.35	703.92	271.8	-485.91	548.29	-226.03	-463.06	468.82	-195.17	-683.26	1042.3	-27.105	-415.93	392.07	-156.74	-598.98	1243.8	-42.826	-328.66	760.11	223.03	-476.34	790.91	-194.12	-370.52	731.56	273.67	-477.01	929.58	263.88	-367.42	219.22	-144.51	-177.6	75.424	-83.484	-558.23	1326.9	-114.18	-571.77	1323.9	18.078	-510.02	628.4	-247.55	-404.66	1052.5	-32.915	-659.71	262.62	41.816	-346.73	225.29	-86.285	-588.8	536.13	151.12	-725.65	826.29	15.246	-533.19	523.94	130.69	-734.81	25.621	-30.707	-331.52	79.514	-39.959	-364.76	311.15	-90.125	-222.11	66.242	-56.817	-384.54	35.04	-72.849	-574.89	901.04	-312.81	-323.12	145.9	-84.061	-255.66	33.195	-133.43	-741.67	204.94	78.284	-528.53	882.7	202.1	-611.77	456.14	120.19	-662.87	377.9	97.616	-594.53	875.95	-244.81	-710.06	192.64	27.229	-348.97	59.405	-117.38	-728.01	818.54	-87.226	-754.9	121.92	12.757	-888.82	83.539	0.026998	-678.03	26.525	4.7296	-811.83	93.74	-37.35	-826.25	83.992	45.868	-760.24	16.727	61.396
293	1.465	-440.07	1402.4	11.02	-449.57	1159.1	-43.42	-461.44	802.13	131.59	-518.02	1189.2	137.95	-488.78	1052.9	222.11	-377.72	836.6	261.02	-527.25	1014.1	-300.02	-522.13	810.47	-360.28	-483.59	703.76	-364.04	-543.83	698.56	-381.58	-555.41	614.09	172.81	-431.82	573.48	-198.62	-509.04	657.99	-407.68	-531.41	1179.7	-231.47	-429.64	1410.9	-84.857	-637.31	1121.9	78.683	-300.52	703.48	272.2	-479.01	548.74	-225.64	-456.28	469.25	-194.74	-677.03	1042.2	-27.843	-409.35	392.36	-156.37	-592.8	1243.7	-43.651	-323.55	759.62	223.26	-469.66	790.7	-194.15	-365.66	731.14	273.7	-471.65	929.4	263.35	-362.85	218.6	-143.88	-175.13	70.341	-81.99	-552.12	1326.8	-114.7	-565.69	1323.8	17.557	-502.89	628.9	-247.25	-398.4	1052.5	-33.557	-654.48	262.14	42.828	-342.45	224.42	-85.52	-581.96	535.84	151.52	-719.24	825.85	15.107	-526.31	523.76	131.08	-734.56	25.875	-30.648	-329.43	78.336	-39.132	-359.39	310.48	-89.511	-220.16	62.32	-55.564	-383.33	35.486	-72.401	-568.28	900.55	-313.17	-319.87	144.74	-83.174	-254.46	30.728	-132.82	-737.52	205.92	79.048	-523.18	882.54	201.56	-604.78	455.73	120.94	-656.02	377.54	98.544	-587.88	875.66	-245.19	-706.04	193.08	28.052	-346.89	58.819	-116.69	-721.46	818.37	-87.29	-752.09	123.22	13.415	-886.44	87.782	0.42674	-678.22	26.475	4.5209	-809.44	96.167	-36.74	-824.22	86.525	46.382	-760.04	17.114	61.281
294	1.47	-434.04	1402.5	10.607	-443.37	1159.1	-44.038	-455.34	802.42	131.63	-512.18	1189.1	137.28	-483.16	1052.8	221.47	-372.7	836.27	260.87	-520.95	1013.8	-300.62	-515.33	809.99	-360.46	-476.77	703.28	-363.98	-536.93	698.02	-381.53	-548.54	614	173.02	-424.86	574.02	-198.32	-502.1	657.43	-407.5	-524.94	1179.5	-232.27	-423.6	1411.1	-85.263	-631.41	1121.9	77.789	-295.87	703.06	272.62	-472.11	549.36	-225.29	-449.52	469.83	-194.39	-670.8	1042.2	-28.582	-402.74	392.8	-156.1	-586.58	1243.8	-44.491	-318.57	759.15	223.5	-462.96	790.63	-194.14	-360.95	730.76	273.73	-466.36	929.32	262.78	-358.34	218.1	-143.42	-172.88	65.462	-80.723	-545.98	1326.9	-115.23	-559.58	1323.7	17.03	-495.73	629.58	-246.99	-392.13	1052.5	-34.263	-648.91	261.67	43.918	-338.25	223.65	-84.912	-574.89	535.58	151.93	-712.8	825.43	15.063	-519.21	523.67	131.47	-734.24	26.172	-30.599	-327.47	77.3	-38.464	-354.06	309.92	-89.03	-218.39	58.565	-54.52	-382.24	36.002	-72.074	-561.61	900.16	-313.52	-316.75	143.68	-82.47	-253.44	28.464	-132.45	-733.06	207	79.842	-517.87	882.49	200.94	-597.5	455.33	121.73	-648.81	377.15	99.529	-581.2	875.48	-245.57	-701.71	193.59	28.929	-344.97	58.325	-116.15	-714.95	818.27	-87.303	-748.98	124.65	14.106	-883.66	92.318	0.76303	-678.44	26.417	4.3221	-806.69	98.75	-36.125	-821.92	89.249	46.869	-759.79	17.614	61.136
